<svg width="154" height="32" viewBox="0 0 154 32" fill="none" xmlns="http://www.w3.org/2000/svg">
<g clip-path="url(#clip0_1994_822)">
<path d="M14.7611 26.6327C15.8944 26.6327 17.0524 25.914 17.0524 24.7779H17.2495V31.9422H17.0524C17.0524 30.8061 15.8944 30.0873 14.7611 30.0873H2.46688C1.33355 30.0873 0.200215 30.8061 0.200215 31.9422H0.00311324L0.00311299 26.6327C5.69442 26.6327 9.0944 26.6327 14.7611 26.6327ZM0.00311279 22.413C0.00311248 15.6429 10.6466 15.2024 10.6466 22.413V25.2648H10.4495V24.2446C10.4495 19.4453 0.200214 19.7699 0.200215 24.2446V25.2648H0.00311293L0.00311279 22.413Z" fill="black"/>
<path d="M13.5538 3.30892C16.264 2.79884 17.0524 1.61639 17.0524 0.0166016H17.2495V3.93492C17.2495 5.21011 16.5597 6.29982 14.5887 6.69394L12.4452 7.11133C10.2277 7.52864 9.04514 8.22422 9.04514 9.66171V10.7282H8.84804V9.49941C8.84804 5.41878 0.200214 5.78975 0.200215 9.70807V10.7282H0.00311293L0.00311279 7.89961C0.00311253 2.14965 7.5176 1.2918 8.84804 6.29982C8.8973 5.09419 9.58719 4.07403 11.4843 3.70307L13.5538 3.30892ZM14.7858 12.1193C15.8944 12.1193 17.0524 11.4006 17.0524 10.2645H17.2495V17.4288H17.0524C17.0524 16.2927 15.8944 15.5739 14.7858 15.5739H2.46688C1.33355 15.5739 0.200215 16.2927 0.200215 17.4288H0.00311323L0.00311299 12.1193H14.7858Z" fill="black"/>
<path d="M41.3687 8.25294C41.3687 9.37531 41.1699 10.3394 40.7723 11.1452C40.4054 11.9222 39.9314 12.5697 39.3503 13.0877C38.7693 13.6057 38.1424 14.0086 37.4696 14.2964C36.8274 14.5842 36.2311 14.7713 35.6806 14.8576C36.5063 15.0014 37.3167 15.2749 38.1118 15.6778C38.9069 16.0519 39.6256 16.5699 40.2678 17.2318C40.91 17.8649 41.4298 18.6276 41.8274 19.5197C42.225 20.4118 42.4237 21.4191 42.4237 22.5414C42.4237 23.6638 42.2709 24.7286 41.965 25.7358C41.6592 26.7431 41.1852 27.6352 40.543 28.4122C39.9314 29.1892 39.1515 29.808 38.2035 30.2684C37.2861 30.7001 36.2157 30.916 34.9925 30.916H23.9374V30.139H26.231V2.03679H23.9374V1.25977H33.3412C34.4115 1.25977 35.4206 1.41805 36.3687 1.73461C37.3473 2.0224 38.2035 2.45408 38.9375 3.02964C39.6715 3.60521 40.2525 4.33906 40.6806 5.23119C41.1393 6.09454 41.3687 7.10179 41.3687 8.25294ZM29.7172 30.139H33.387C34.121 30.139 34.809 30.0382 35.4513 29.8367C36.124 29.6353 36.7051 29.2612 37.1944 28.7144C37.7142 28.1388 38.1271 27.3618 38.4329 26.3834C38.7387 25.4049 38.8916 24.1242 38.8916 22.5414C38.8916 21.0737 38.7234 19.8651 38.387 18.9153C38.0812 17.9657 37.6531 17.2174 37.1026 16.6706C36.5827 16.1238 35.9864 15.7497 35.3136 15.5483C34.6714 15.318 34.0292 15.2029 33.387 15.2029H29.7172V30.139ZM29.7172 14.4259H33.3412C34.7173 14.4259 35.8488 13.951 36.7357 13.0014C37.6225 12.0229 38.0659 10.4401 38.0659 8.25294C38.0659 5.97943 37.6072 4.38223 36.6898 3.46132C35.7723 2.51163 34.5185 2.03679 32.9283 2.03679H29.7172V14.4259Z" fill="black"/>
<path d="M42.0629 30.1388H45.1822L53.118 0.871094H53.485L61.5125 30.1388H64.6777V30.9158H53.9896V30.1388H57.7511L55.3198 21.8074H48.3014L46.0079 30.1388H50.0905V30.9158H42.0629V30.1388ZM51.8336 8.68445L48.5308 21.0304H55.1822L51.8336 8.68445Z" fill="black"/>
<path d="M67.3135 9.54795C67.2523 10.0948 67.0994 10.3682 66.8548 10.3682C66.7019 10.3682 66.6101 10.2962 66.5796 10.1523C66.549 10.0084 66.5337 9.82133 66.5337 9.59114V2.29579C66.5337 1.89289 66.6101 1.6195 66.763 1.47561C66.9466 1.33171 67.2217 1.25977 67.5887 1.25977H82.4051V2.03679L70.0655 30.139H76.3045C77.5584 30.139 78.5365 29.9231 79.2404 29.4914C79.9436 29.0309 80.4788 28.4554 80.8455 27.7647C81.2128 27.0452 81.457 26.2394 81.5794 25.3473C81.7327 24.4552 81.8698 23.5487 81.9922 22.6278C82.0538 22.081 82.2063 21.8076 82.4512 21.8076C82.6038 21.8076 82.6961 21.8795 82.7262 22.0234C82.757 22.1673 82.7724 22.3543 82.7724 22.5846V29.8799C82.7724 30.2828 82.6807 30.5562 82.4967 30.7001C82.3442 30.844 82.0839 30.916 81.7173 30.916H66.3502V29.9663L78.6436 2.03679H73.0013C71.7475 2.03679 70.7539 2.26701 70.02 2.72747C69.3166 3.15914 68.7814 3.73472 68.4144 4.45418C68.0474 5.14486 67.8028 5.95066 67.6805 6.87154C67.5581 7.76372 67.4358 8.65583 67.3135 9.54795Z" fill="black"/>
<path d="M84.7091 30.1388H87.8283L95.7641 0.871094H96.1314L104.159 30.1388H107.324V30.9158H96.6359V30.1388H100.397L97.966 21.8074H90.9482L88.6546 30.1388H92.7366V30.9158H84.7091V30.1388ZM94.4802 8.68445L91.177 21.0304H97.8288L94.4802 8.68445Z" fill="black"/>
<path d="M108.675 30.1388H111.794L119.73 0.871094H120.098L128.125 30.1388H131.29V30.9158H120.602V30.1388H124.364L121.932 21.8074H114.914L112.621 30.1388H116.703V30.9158H108.675V30.1388ZM118.446 8.68445L115.143 21.0304H121.795L118.446 8.68445Z" fill="black"/>
<path d="M150.119 26.7287C150.119 27.1028 150.134 27.4913 150.165 27.8942C150.226 28.2971 150.318 28.6568 150.44 28.9734C150.593 29.29 150.777 29.5634 150.991 29.7936C151.205 29.995 151.48 30.0958 151.816 30.0958C152.305 30.0958 152.886 29.8224 153.559 29.2756C153.651 29.1892 153.743 29.1461 153.834 29.1461C153.927 29.1461 153.972 29.2037 153.972 29.3187C153.972 29.3187 153.941 29.3763 153.88 29.4914C153.483 29.9807 152.963 30.3692 152.321 30.657C151.709 30.9448 151.067 31.0886 150.394 31.0886C149.691 31.0886 149.079 30.9735 148.559 30.7433C148.039 30.5131 147.611 30.1245 147.275 29.5778C146.969 29.0022 146.739 28.2539 146.587 27.333C146.434 26.4121 146.357 25.261 146.357 23.8796C146.357 20.9155 146.005 18.8147 145.302 17.5771C144.63 16.3109 143.468 15.6778 141.816 15.6778H139.339V30.139H142.183V30.916H132.779V30.139H135.532V2.03679H132.779V1.25977H142.504C143.758 1.25977 144.874 1.44683 145.853 1.82094C146.862 2.19507 147.703 2.71308 148.376 3.37499C149.048 4.03689 149.553 4.81391 149.889 5.70603C150.257 6.56939 150.44 7.51911 150.44 8.55509C150.44 9.61992 150.241 10.5552 149.844 11.361C149.477 12.1668 149.003 12.8575 148.421 13.4331C147.841 14.0086 147.183 14.4691 146.449 14.8144C145.746 15.1597 145.057 15.4043 144.385 15.5483C145.271 15.6634 146.112 15.9943 146.908 16.5411C147.703 17.0591 148.391 17.8218 148.972 18.829C149.186 19.2031 149.37 19.5916 149.523 19.9946C149.675 20.3975 149.798 20.901 149.889 21.5054C149.981 22.081 150.043 22.7861 150.073 23.6206C150.103 24.4552 150.119 25.4912 150.119 26.7287ZM142.137 14.9008C142.871 14.9008 143.544 14.8 144.155 14.5986C144.767 14.3684 145.287 14.0086 145.715 13.5194C146.174 13.0014 146.525 12.3395 146.77 11.5337C147.045 10.6991 147.183 9.67747 147.183 8.46877C147.183 7.26008 147.045 6.25283 146.77 5.44703C146.525 4.61246 146.174 3.95055 145.715 3.46132C145.287 2.94331 144.767 2.58358 144.155 2.38213C143.544 2.1519 142.871 2.03679 142.137 2.03679H139.339V14.9008H142.137Z" fill="black"/>
</g>
<defs>
<clipPath id="clip0_1994_822">
<rect width="154" height="32" fill="white"/>
</clipPath>
</defs>
</svg>
